<svg id="layer_1" data-name="layer 1" xmlns="http://www.w3.org/2000/svg" xmlns:xlink="http://www.w3.org/1999/xlink" viewBox="0 0 892.84 368.53"><defs><style>.cls-1{opacity:0.4;}.cls-2{fill:#d3e1ea;}.cls-3{fill:url(#Безымянный_градиент_90);}.cls-4{fill:#d5dbe0;}.cls-24,.cls-5{fill:#f0f0f0;}.cls-36,.cls-6{fill:#4d3782;}.cls-7{fill:url(#Безымянный_градиент_7);}.cls-8{fill:url(#Безымянный_градиент_4);}.cls-9{fill:#fff;}.cls-10{fill:#fcd2c5;}.cls-11,.cls-25{fill:#272063;}.cls-12{fill:url(#Безымянный_градиент_3);}.cls-13{fill:url(#Безымянный_градиент_3-2);}.cls-14{fill:url(#Безымянный_градиент_7-2);}.cls-15{fill:url(#Безымянный_градиент_3-3);}.cls-16{fill:url(#Безымянный_градиент_3-4);}.cls-17{fill:url(#Безымянный_градиент_3-5);}.cls-18{fill:url(#Безымянный_градиент_30);}.cls-19{fill:url(#Безымянный_градиент_4-2);}.cls-20{fill:url(#Безымянный_градиент_10);}.cls-21{fill:url(#Безымянный_градиент_4-3);}.cls-22{fill:#ce61d4;}.cls-23{fill:url(#Безымянный_градиент_30-2);}.cls-24,.cls-25,.cls-36{fill-rule:evenodd;}.cls-26{fill:url(#Безымянный_градиент_10-2);}.cls-27{fill:url(#Безымянный_градиент_4-4);}.cls-28{fill:url(#Безымянный_градиент_10-3);}.cls-29{fill:url(#Безымянный_градиент_4-5);}.cls-30{fill:#53d6f2;}.cls-31{fill:url(#Безымянный_градиент_98);}.cls-32{fill:url(#Безымянный_градиент_98-2);}.cls-33{fill:url(#Безымянный_градиент_3-6);}.cls-34{fill:url(#Безымянный_градиент_98-3);}.cls-35{fill:url(#Безымянный_градиент_3-7);}.cls-37{fill:#5836e5;}.cls-38{fill:url(#Безымянный_градиент_7-3);}.cls-39{fill:#a2e4fe;}.cls-40{fill:url(#Безымянный_градиент_4-6);}</style><linearGradient id="Безымянный_градиент_90" x1="2.34" y1="356.34" x2="895.19" y2="356.34" gradientUnits="userSpaceOnUse"><stop offset="0" stop-color="#63d4ff"/><stop offset="1" stop-color="#546be5"/></linearGradient><linearGradient id="Безымянный_градиент_7" x1="773.18" y1="523.35" x2="773.18" y2="350.39" gradientUnits="userSpaceOnUse"><stop offset="0" stop-color="#5937e5"/><stop offset="0.43" stop-color="#8e52de"/><stop offset="0.81" stop-color="#b767d9"/><stop offset="1" stop-color="#c66fd7"/></linearGradient><linearGradient id="Безымянный_градиент_4" x1="797.64" y1="523.35" x2="797.64" y2="350.39" gradientUnits="userSpaceOnUse"><stop offset="0" stop-color="#9e90f2"/><stop offset="1" stop-color="#a1d8f6"/></linearGradient><linearGradient id="Безымянный_градиент_3" x1="280.71" y1="513.17" x2="294.46" y2="513.17" gradientUnits="userSpaceOnUse"><stop offset="0" stop-color="#c66fd7"/><stop offset="0.19" stop-color="#b767d9"/><stop offset="0.57" stop-color="#8e52de"/><stop offset="1" stop-color="#5937e5"/></linearGradient><linearGradient id="Безымянный_градиент_3-2" x1="281.9" y1="514.41" x2="293.5" y2="514.41" xlink:href="#Безымянный_градиент_3"/><linearGradient id="Безымянный_градиент_7-2" x1="194.05" y1="298.57" x2="249.18" y2="331.69" xlink:href="#Безымянный_градиент_7"/><linearGradient id="Безымянный_градиент_3-3" x1="264.73" y1="368.21" x2="300.02" y2="368.21" xlink:href="#Безымянный_градиент_3"/><linearGradient id="Безымянный_градиент_3-4" x1="234.08" y1="370.03" x2="286.43" y2="370.03" xlink:href="#Безымянный_градиент_3"/><linearGradient id="Безымянный_градиент_3-5" x1="238.37" y1="515.48" x2="251.52" y2="515.48" xlink:href="#Безымянный_градиент_3"/><linearGradient id="Безымянный_градиент_30" x1="250.55" y1="513.95" x2="648.07" y2="513.95" gradientUnits="userSpaceOnUse"><stop offset="0" stop-color="#c66fd7"/><stop offset="1" stop-color="#5937e5"/></linearGradient><linearGradient id="Безымянный_градиент_4-2" x1="292.22" y1="235.38" x2="601.73" y2="235.38" xlink:href="#Безымянный_градиент_4"/><linearGradient id="Безымянный_градиент_10" x1="533.69" y1="327.61" x2="533.69" y2="155.28" gradientUnits="userSpaceOnUse"><stop offset="0" stop-color="#546be5"/><stop offset="1" stop-color="#63d4ff"/></linearGradient><linearGradient id="Безымянный_градиент_4-3" x1="569.05" y1="327.61" x2="569.05" y2="155.28" xlink:href="#Безымянный_градиент_4"/><linearGradient id="Безымянный_градиент_30-2" x1="485.82" y1="365.52" x2="536.31" y2="365.52" xlink:href="#Безымянный_градиент_30"/><linearGradient id="Безымянный_градиент_10-2" x1="409.53" y1="327.61" x2="409.53" y2="83.14" xlink:href="#Безымянный_градиент_10"/><linearGradient id="Безымянный_градиент_4-4" x1="440.39" y1="327.61" x2="440.39" y2="83.14" xlink:href="#Безымянный_градиент_4"/><linearGradient id="Безымянный_градиент_10-3" x1="323.16" y1="327.61" x2="323.16" y2="156.61" xlink:href="#Безымянный_градиент_10"/><linearGradient id="Безымянный_градиент_4-5" x1="349.5" y1="327.61" x2="349.5" y2="156.61" xlink:href="#Безымянный_градиент_4"/><linearGradient id="Безымянный_градиент_98" x1="691.86" y1="354.79" x2="713.34" y2="354.79" gradientUnits="userSpaceOnUse"><stop offset="0" stop-color="#a1d8f6"/><stop offset="1" stop-color="#9e90f2"/></linearGradient><linearGradient id="Безымянный_градиент_98-2" x1="695.81" y1="395.43" x2="746.8" y2="395.43" xlink:href="#Безымянный_градиент_98"/><linearGradient id="Безымянный_градиент_3-6" x1="704.93" y1="318.94" x2="725.18" y2="318.94" xlink:href="#Безымянный_градиент_3"/><linearGradient id="Безымянный_градиент_98-3" x1="709.21" y1="348.89" x2="736.17" y2="348.89" xlink:href="#Безымянный_градиент_98"/><linearGradient id="Безымянный_градиент_3-7" x1="721.03" y1="326.43" x2="748.61" y2="326.43" xlink:href="#Безымянный_градиент_3"/><linearGradient id="Безымянный_градиент_7-3" x1="125.34" y1="361.78" x2="125.34" y2="144.02" xlink:href="#Безымянный_градиент_7"/><linearGradient id="Безымянный_градиент_4-6" x1="171.17" y1="361.78" x2="171.17" y2="144.02" xlink:href="#Безымянный_градиент_4"/></defs><title>background1</title><g class="cls-1"><rect class="cls-2" x="250.27" y="362.32" width="14.46" height="6.2"/></g><path class="cls-3" d="M801.68,347.63c-14.89,7.48-12.68,82.17-32.27,82.17-69.26,0-87.17-271.07-183.54-237.61-50,17.36-104.4,160.36-165,200.37C357.72,434.25,278.46,303,232.92,303c-47.95,0-52.33,145.27-90.23,154.9-18.53,4.71-39-24.64-56.63-17-18.84,8.19-27.06,30.62-37.3,49.28S17,522.13,2.34,523.35H895.19C827,478.21,849.6,323.56,801.68,347.63Z" transform="translate(-2.34 -161.57)"/><polygon class="cls-4" points="117.43 112.51 128.83 112.51 130.38 100.06 111.89 100.06 117.43 112.51"/><path class="cls-4" d="M90,229.36l-13-2,8.54,15.51,10.81-3.54c0-.14,0-5.69,0-5.69C96.4,230.16,93.55,229.36,90,229.36Z" transform="translate(-2.34 -161.57)"/><path class="cls-4" d="M85.58,248.74,77,264.24l13-2c3.52,0,6.37-.79,6.37-4.31,0,0,0-5.55,0-5.69Z" transform="translate(-2.34 -161.57)"/><path class="cls-5" d="M74.57,246.5s88.4-.17,88.56,0C152.75,209.9,79.48,230.28,74.57,246.5Z" transform="translate(-2.34 -161.57)"/><path class="cls-4" d="M74.57,246.5c4.91,16.22,78.18,36.61,88.56,0C163,246.68,74.57,246.5,74.57,246.5Z" transform="translate(-2.34 -161.57)"/><path class="cls-4" d="M127.18,234.4c-32.06,0-52.29,12-52.6,12.1h88.55C163,246.33,159.19,234.4,127.18,234.4Z" transform="translate(-2.34 -161.57)"/><path class="cls-5" d="M127.18,258.61c32,0,35.79-11.93,35.95-12.1H74.58C74.89,246.63,95.12,258.61,127.18,258.61Z" transform="translate(-2.34 -161.57)"/><polygon class="cls-4" points="160.79 84.94 160.79 84.93 160.79 84.93 160.79 84.94"/><path class="cls-5" d="M874.48,275.15a11.21,11.21,0,0,0-8.58,4.21h17.16A11.21,11.21,0,0,0,874.48,275.15Z" transform="translate(-2.34 -161.57)"/><path class="cls-5" d="M832.39,270.34c-3.67,0-6.45,4.36-9.77,3.59-7.23-1.7-10.21-11-18.15-11-6.13,0-9.68,7.61-15.33,7.1-9-.82-13-12.91-22.65-12.91-8.92,0-13.3,10.35-21.54,11.26-4.85.54-8.4-5.29-13.67-5.29-9.95,0-10.82,4-20,6.81-2.63.82-4.64,5.95-7.61,5.95-3.5,0-6.6,1.09-8.58,3.53H847.32A17.25,17.25,0,0,0,832.39,270.34Z" transform="translate(-2.34 -161.57)"/><path class="cls-6" d="M663.31,195.77l-.66-.35a1.42,1.42,0,1,0-1.32,2.51l.59.32a1.36,1.36,0,0,0,.69.19,1.43,1.43,0,0,0,.7-2.67Z" transform="translate(-2.34 -161.57)"/><path class="cls-6" d="M674.78,208.13a1.42,1.42,0,0,0-2.58,1.2c.1.2.19.41.28.61a1.41,1.41,0,0,0,1.87.74,1.43,1.43,0,0,0,.73-1.88C675,208.58,674.88,208.35,674.78,208.13Z" transform="translate(-2.34 -161.57)"/><path class="cls-6" d="M661.41,241.58c-.19.1-.39.21-.59.3a1.42,1.42,0,0,0,.63,2.7,1.39,1.39,0,0,0,.63-.15l.67-.34a1.42,1.42,0,0,0-1.34-2.51Z" transform="translate(-2.34 -161.57)"/><path class="cls-6" d="M657.83,193.44c-.23-.08-.47-.14-.71-.21a1.42,1.42,0,1,0-.75,2.74l.64.19a1.51,1.51,0,0,0,.41.06,1.42,1.42,0,0,0,.41-2.78Z" transform="translate(-2.34 -161.57)"/><path class="cls-6" d="M652,192.34l-.74-.05a1.42,1.42,0,1,0-.15,2.84l.67.05h.11a1.42,1.42,0,0,0,.11-2.84Z" transform="translate(-2.34 -161.57)"/><path class="cls-6" d="M675,212.68a1.43,1.43,0,0,0-1.08,1.7c.05.21.1.43.14.65a1.42,1.42,0,0,0,1.4,1.15l.27,0a1.42,1.42,0,0,0,1.12-1.67l-.15-.73A1.42,1.42,0,0,0,675,212.68Z" transform="translate(-2.34 -161.57)"/><path class="cls-6" d="M651.2,244.42l-.67,0a1.42,1.42,0,0,0,0,2.84h0l.74,0a1.42,1.42,0,1,0-.15-2.84Z" transform="translate(-2.34 -161.57)"/><path class="cls-6" d="M656.46,243.56l-.64.17a1.42,1.42,0,0,0,.34,2.8,1.32,1.32,0,0,0,.34,0l.73-.19a1.42,1.42,0,0,0-.77-2.74Z" transform="translate(-2.34 -161.57)"/><path class="cls-6" d="M674.13,229.44a1.43,1.43,0,0,0-1.89.69c-.09.21-.18.41-.28.61a1.41,1.41,0,0,0,.63,1.9,1.46,1.46,0,0,0,.64.15,1.42,1.42,0,0,0,1.27-.79l.33-.67A1.42,1.42,0,0,0,674.13,229.44Z" transform="translate(-2.34 -161.57)"/><path class="cls-6" d="M675.64,224a1.42,1.42,0,0,0-1.7,1.08c0,.22-.09.44-.15.65a1.43,1.43,0,0,0,1,1.72,1.39,1.39,0,0,0,.35,0,1.42,1.42,0,0,0,1.37-1.07c.06-.25.12-.49.17-.73A1.41,1.41,0,0,0,675.64,224Z" transform="translate(-2.34 -161.57)"/><path class="cls-6" d="M675.94,218.25a1.42,1.42,0,0,0-1.42,1.42v.11c0,.22,0,.44,0,.67a1.43,1.43,0,0,0,1.38,1.46h0a1.43,1.43,0,0,0,1.42-1.39c0-.25,0-.49,0-.73v-.12A1.43,1.43,0,0,0,675.94,218.25Z" transform="translate(-2.34 -161.57)"/><path class="cls-6" d="M669.49,234.7c-.13.18-.27.36-.41.53a1.42,1.42,0,0,0,.22,2,1.4,1.4,0,0,0,.89.31,1.43,1.43,0,0,0,1.11-.53l.45-.58a1.42,1.42,0,1,0-2.26-1.73Z" transform="translate(-2.34 -161.57)"/><path class="cls-6" d="M667.59,198.74a1.43,1.43,0,0,0-1.84,2.18l.51.43a1.4,1.4,0,0,0,.94.36,1.42,1.42,0,0,0,.95-2.48Z" transform="translate(-2.34 -161.57)"/><path class="cls-6" d="M646,192.52l-.73.11a1.42,1.42,0,0,0,.23,2.82l.23,0,.67-.1a1.42,1.42,0,1,0-.4-2.81Z" transform="translate(-2.34 -161.57)"/><path class="cls-6" d="M665.82,238.58l-.51.43a1.43,1.43,0,0,0-.22,2,1.46,1.46,0,0,0,1.11.53,1.43,1.43,0,0,0,.89-.32c.2-.15.39-.31.58-.48a1.42,1.42,0,1,0-1.85-2.16Z" transform="translate(-2.34 -161.57)"/><path class="cls-6" d="M635.47,239.84a1.42,1.42,0,1,0-1.66,2.31l.61.43a1.44,1.44,0,0,0,.8.24,1.42,1.42,0,0,0,.8-2.59Z" transform="translate(-2.34 -161.57)"/><path class="cls-6" d="M631.49,236.28a1.42,1.42,0,0,0-2.11,1.91l.5.54a1.41,1.41,0,0,0,1,.44,1.35,1.35,0,0,0,1-.39,1.41,1.41,0,0,0,.06-2Z" transform="translate(-2.34 -161.57)"/><path class="cls-6" d="M630.33,200.36l-.52.54a1.43,1.43,0,0,0,1,2.4,1.4,1.4,0,0,0,1-.45l.47-.48a1.42,1.42,0,1,0-2-2Z" transform="translate(-2.34 -161.57)"/><path class="cls-6" d="M635,196.63l-.62.41a1.42,1.42,0,0,0,.81,2.59,1.4,1.4,0,0,0,.8-.25l.56-.37a1.42,1.42,0,1,0-1.55-2.38Z" transform="translate(-2.34 -161.57)"/><path class="cls-6" d="M645.87,244.14l-.66-.12a1.43,1.43,0,0,0-1.66,1.14,1.42,1.42,0,0,0,1.13,1.66l.74.13h.23a1.42,1.42,0,0,0,.22-2.82Z" transform="translate(-2.34 -161.57)"/><path class="cls-6" d="M671.69,203.05a1.42,1.42,0,0,0-2-.27,1.44,1.44,0,0,0-.27,2c.14.17.27.35.41.53a1.39,1.39,0,0,0,1.15.59,1.42,1.42,0,0,0,1.14-2.26C672,203.44,671.84,203.24,671.69,203.05Z" transform="translate(-2.34 -161.57)"/><path class="cls-6" d="M640.73,242.72l-.62-.26a1.42,1.42,0,0,0-1.12,2.62l.69.28a1.39,1.39,0,0,0,.53.1,1.42,1.42,0,0,0,.52-2.74Z" transform="translate(-2.34 -161.57)"/><path class="cls-6" d="M640.27,194l-.69.26a1.42,1.42,0,0,0,.53,2.74,1.39,1.39,0,0,0,.53-.1l.63-.24a1.42,1.42,0,0,0-1-2.66Z" transform="translate(-2.34 -161.57)"/><path class="cls-6" d="M624.16,214.9a1.42,1.42,0,0,0-1.6,1.22c0,.24-.06.49-.09.74a1.42,1.42,0,0,0,1.27,1.56h.15a1.43,1.43,0,0,0,1.41-1.27c0-.22.05-.44.08-.66A1.43,1.43,0,0,0,624.16,214.9Z" transform="translate(-2.34 -161.57)"/><path class="cls-6" d="M623.71,220.53a1.42,1.42,0,0,0-1.3,1.53c0,.25,0,.5.07.75a1.43,1.43,0,0,0,1.41,1.26h.16a1.43,1.43,0,0,0,1.26-1.57c0-.22,0-.44-.07-.66A1.42,1.42,0,0,0,623.71,220.53Z" transform="translate(-2.34 -161.57)"/><path class="cls-6" d="M625.8,209.49a1.42,1.42,0,0,0-1.82.85c-.09.23-.17.47-.25.71a1.41,1.41,0,0,0,1.35,1.87,1.44,1.44,0,0,0,1.35-1c.07-.21.14-.43.22-.64A1.42,1.42,0,0,0,625.8,209.49Z" transform="translate(-2.34 -161.57)"/><path class="cls-6" d="M626.25,227.06a1.42,1.42,0,0,0-2.71.85c.07.23.15.47.23.7a1.41,1.41,0,0,0,1.34,1,1.24,1.24,0,0,0,.46-.08,1.42,1.42,0,0,0,.89-1.8Z" transform="translate(-2.34 -161.57)"/><path class="cls-6" d="M628.58,204.57a1.43,1.43,0,0,0-2,.43l-.39.64a1.42,1.42,0,0,0,.49,2,1.39,1.39,0,0,0,.73.2,1.42,1.42,0,0,0,1.22-.69c.11-.19.23-.38.35-.57A1.42,1.42,0,0,0,628.58,204.57Z" transform="translate(-2.34 -161.57)"/><path class="cls-6" d="M628.37,232a1.42,1.42,0,1,0-2.47,1.4c.12.22.25.43.38.65a1.4,1.4,0,0,0,1.21.68,1.42,1.42,0,0,0,.74-.2,1.44,1.44,0,0,0,.48-2C628.59,232.34,628.48,232.15,628.37,232Z" transform="translate(-2.34 -161.57)"/><path class="cls-6" d="M649.84,183.42a36.36,36.36,0,1,0,36.35,36.36A36.4,36.4,0,0,0,649.84,183.42Zm0,69.87a33.51,33.51,0,1,1,33.51-33.51A33.54,33.54,0,0,1,649.84,253.29Z" transform="translate(-2.34 -161.57)"/><path class="cls-6" d="M591.63,219.78a58.18,58.18,0,0,0,35.29,53.52l1.12-2.62a55.37,55.37,0,0,1,40.31-103.09l1-2.68a58.24,58.24,0,0,0-77.68,54.87Z" transform="translate(-2.34 -161.57)"/><path class="cls-6" d="M702,201.2a55.45,55.45,0,0,1-18.76,62.72l1.72,2.27a58.26,58.26,0,0,0,19.72-65.94Z" transform="translate(-2.34 -161.57)"/><path class="cls-6" d="M652.19,222.13a2.42,2.42,0,0,0-4.71,0L577.62,520.38a2.4,2.4,0,0,0,.46,2,2.43,2.43,0,0,0,1.9.92H719.7a2.43,2.43,0,0,0,1.9-.92,2.4,2.4,0,0,0,.46-2Zm47.49,223.93-46.15-37.71,31.36-25.42ZM603,449.29l46.67-37.83L696,449.29Zm90.53,4.84-43.92,24.76-44.17-24.76ZM666,311.19H633.66l16.18-19.72Zm-22.91-35.54h13.45l-6.72,8.19ZM665.75,316l-15.91,17.88L633.93,316ZM681,376.2H618.7l31.14-35ZM679.54,381,649.7,405.22,620.1,381Zm2.29-11.16-28.75-32.33,16.77-18.85ZM666.41,304,653,287.65l7.47-9.1Zm-16.57-70.74,8.79,37.52H641.05Zm-10.6,45.26,7.47,9.1L633.27,304Zm-9.41,40.15,16.77,18.85-28.76,32.33Zm-15.05,64.24,31.08,25.4-45.7,37Zm-17,72.46,46.89,26.27-61.11,34.45Zm-8.61,63.11,60.44-34.07,60.79,34.07Zm65.37-36.85,47.21-26.61,14.31,61.08Z" transform="translate(-2.34 -161.57)"/><path class="cls-6" d="M649.84,205.73a17,17,0,1,0,17,17A17,17,0,0,0,649.84,205.73Zm0,29.07A12.12,12.12,0,1,1,662,222.68,12.14,12.14,0,0,1,649.84,234.8Z" transform="translate(-2.34 -161.57)"/><path class="cls-7" d="M797.64,350.41l-24.46,0a13.79,13.79,0,0,0-13.79,13.8H745V523.35h56.47V364.19H787C787,356.82,797.64,350.41,797.64,350.41Z" transform="translate(-2.34 -161.57)"/><path class="cls-8" d="M797.64,350.39a13.79,13.79,0,0,0-13.79,13.8H769.41V523.35h56.46V364.19H811.44A13.8,13.8,0,0,0,797.64,350.39Z" transform="translate(-2.34 -161.57)"/><path class="cls-5" d="M797.64,357.26a6.92,6.92,0,0,0-6.92,6.93h13.84A6.92,6.92,0,0,0,797.64,357.26Z" transform="translate(-2.34 -161.57)"/><rect class="cls-5" x="782.29" y="234.44" width="8.46" height="4.69"/><rect class="cls-5" x="767.07" y="234.44" width="10.32" height="4.69"/><rect class="cls-5" x="784.75" y="245.71" width="11.41" height="4.69"/><rect class="cls-5" x="767.07" y="245.71" width="13.89" height="4.69"/><rect class="cls-5" x="776.49" y="256.97" width="14.26" height="4.69"/><rect class="cls-5" x="767.07" y="256.97" width="6.75" height="4.69"/><rect class="cls-6" x="786.75" y="268.23" width="10.99" height="4.69"/><rect class="cls-5" x="767.07" y="268.23" width="16.56" height="4.69"/><rect class="cls-5" x="767.07" y="279.49" width="23.69" height="4.69"/><rect class="cls-5" x="767.07" y="290.75" width="25.04" height="4.69"/><rect class="cls-6" x="796.35" y="290.75" width="16.81" height="4.69"/><rect class="cls-6" x="767.07" y="302.02" width="9.42" height="4.69"/><rect class="cls-5" x="779.84" y="302.02" width="10.91" height="4.69"/><rect class="cls-6" x="809.74" y="322.94" width="13.8" height="4.69"/><rect class="cls-9" x="784.97" y="322.94" width="22.54" height="4.69"/><rect class="cls-5" x="767.07" y="322.94" width="13.22" height="4.69"/><rect class="cls-5" x="806.29" y="333.45" width="17.25" height="4.69"/><rect class="cls-5" x="767.07" y="333.45" width="36.86" height="4.69"/><rect class="cls-6" x="767.07" y="344.67" width="12.1" height="4.69"/><rect class="cls-5" x="788.54" y="344.67" width="34.99" height="4.69"/><rect class="cls-9" x="767.07" y="313.28" width="23.69" height="4.69"/><rect class="cls-5" x="747.55" y="313.28" width="19.52" height="4.69"/><rect class="cls-6" x="742.61" y="290.75" width="19.52" height="4.69"/><rect class="cls-5" x="753.92" y="279.45" width="10.74" height="4.69"/><rect class="cls-6" x="753.92" y="234.44" width="10.74" height="4.69"/><rect class="cls-5" x="749.58" y="223.32" width="10.74" height="4.69"/><rect class="cls-5" x="742.61" y="322.94" width="19.52" height="4.69"/><rect class="cls-5" x="747.55" y="212.06" width="19.52" height="4.69"/><rect class="cls-5" x="747.55" y="256.97" width="19.52" height="4.69"/><rect class="cls-5" x="758.71" y="344.67" width="8.35" height="4.69"/><rect class="cls-5" x="815.09" y="234.44" width="8.44" height="4.69"/><rect class="cls-6" x="799.85" y="234.44" width="11.67" height="4.69"/><rect class="cls-5" x="820.23" y="245.71" width="3.31" height="4.69"/><rect class="cls-9" x="799.85" y="245.71" width="17.7" height="4.69"/><rect class="cls-5" x="792.38" y="256.97" width="13.56" height="4.69"/><rect class="cls-5" x="812.19" y="256.97" width="11.34" height="4.69"/><rect class="cls-5" x="799.85" y="268.23" width="23.68" height="4.69"/><rect class="cls-5" x="799.85" y="279.49" width="23.68" height="4.69"/><rect class="cls-5" x="814.91" y="290.75" width="8.62" height="4.69"/><rect class="cls-5" x="775.82" y="212.06" width="14.93" height="4.69"/><rect class="cls-5" x="767.07" y="212.06" width="5.41" height="4.69"/><rect class="cls-5" x="803.94" y="223.32" width="9.22" height="4.69"/><rect class="cls-5" x="780.51" y="223.32" width="18.97" height="4.69"/><rect class="cls-5" x="767.07" y="223.32" width="11.65" height="4.69"/><rect class="cls-5" x="814.65" y="212.06" width="8.89" height="4.69"/><rect class="cls-6" x="799.85" y="212.06" width="12.12" height="4.69"/><rect class="cls-5" x="814.91" y="223.32" width="8.62" height="4.69"/><rect class="cls-5" x="799.85" y="302.02" width="23.68" height="4.69"/><rect class="cls-5" x="799.85" y="313.28" width="23.68" height="4.69"/><rect class="cls-5" x="254.09" y="100.84" width="6.81" height="255.28"/><path class="cls-5" d="M267,257.14a13.65,13.65,0,1,0,5.19,18.6A13.66,13.66,0,0,0,267,257.14Z" transform="translate(-2.34 -161.57)"/><path class="cls-4" d="M288,214.47l-25.64,35.05-2,19.51L276,257.23l16.7-40.09A2.74,2.74,0,0,0,288,214.47Z" transform="translate(-2.34 -161.57)"/><path class="cls-4" d="M194.54,267a2.71,2.71,0,0,0,.05,5.39l47.84,4.66,17.89-8-18.06-7.66Z" transform="translate(-2.34 -161.57)"/><path class="cls-4" d="M276.23,280.51,260.32,269l2.39,19.47,27.16,36.38a3,3,0,0,0,5.14-3Z" transform="translate(-2.34 -161.57)"/><rect class="cls-4" x="250.27" y="355.58" width="14.46" height="6.2"/><path class="cls-10" d="M267.17,438.44c.1,3.29,13.74,72.43,13.74,72.43a5.86,5.86,0,0,0,4.43-1.48s-3.16-68.77-3.19-70.19C281.11,440.47,269.18,439.69,267.17,438.44Z" transform="translate(-2.34 -161.57)"/><path class="cls-11" d="M278.37,405c-6.26,1.56-12.48,3.1-18.81,4.16l.45,4.29c1.92,1.21,3.66,22.56,9.2,44.67,6.42,25.63,11,50.56,11,50.56a4.63,4.63,0,0,1,5.56-.74s-1.1-69.79-2.15-104.3C281.93,404.13,280.2,404.56,278.37,405Z" transform="translate(-2.34 -161.57)"/><path class="cls-12" d="M286.31,509.19a10.83,10.83,0,0,1-1-1.09s-3.5-.82-4.57,1.75c0,0,0,3,.81,4.1.47.63,3.15,3.46,4.47,4.06a8.76,8.76,0,0,0,4.54.15c1.86-.26,4-1.48,3.92-2.56C294.23,513.45,287.74,510.57,286.31,509.19Z" transform="translate(-2.34 -161.57)"/><path class="cls-13" d="M285.42,510.82c-1.81-1.26-4.92.92-2.81,3.84a16.9,16.9,0,0,0,3.75,3.41,7.41,7.41,0,0,0,3.83.13c1.56-.22,3.4-1.24,3.3-2.16C293.3,514.24,287.29,512.12,285.42,510.82Z" transform="translate(-2.34 -161.57)"/><path class="cls-10" d="M213.86,275.33c-.35-.31-2,.91-2.16,1.34-.12,1.15.55,1.22.28,2.28a9.72,9.72,0,0,1,1.58-2.49C213.93,276.08,214.44,275.76,213.86,275.33Z" transform="translate(-2.34 -161.57)"/><path class="cls-10" d="M212.45,269.07a2.57,2.57,0,0,0-1.1-1.09.76.76,0,0,0-.82.31c-.59-.32-1.09,1.29-1.22,1.18-.52-.45-1.29.12-1.23,2.53,0,.15-1,6.09-1.21,8a24.74,24.74,0,0,0,4.93-.26,25.18,25.18,0,0,0,.58-3.37c.15-1.36.16-4.44.16-4.65A17.53,17.53,0,0,0,212.45,269.07Z" transform="translate(-2.34 -161.57)"/><path class="cls-10" d="M211.88,279.41a18.88,18.88,0,0,1-4.92-.16c-1.27,10.05-1.63,35.42,2.08,37,3.4,1.49,5.26-.56,5.82-2.31a3.52,3.52,0,0,0,.19-1.09C215,307.05,211,285.5,211.88,279.41Z" transform="translate(-2.34 -161.57)"/><path class="cls-10" d="M216.5,312.16c-6.6-8.05-9.86-.58-8.65,2.51,3.19,8.11,15.79,28.87,20.17,27.66,1.9-.53,10.89-7.24,10.33-8C235.24,329.88,221.87,318.72,216.5,312.16Z" transform="translate(-2.34 -161.57)"/><path class="cls-14" d="M216.07,309.87c-.25-2.5-.7-5.85-1.17-9.39-1-7.74-2.33-17.36-1.81-20.89l-7.34-.49c-1.12,8.84-1.61,29.78,1,36.1,2.61,6.61,14.32,25.76,28.58,38.58,1.73,1.56,8.85-22.38,8.41-22.45C234.16,329.67,216.53,310.33,216.07,309.87Z" transform="translate(-2.34 -161.57)"/><path class="cls-10" d="M292.86,405.73a9.55,9.55,0,0,1-1.58,2.49c-.37.39-.89.7-.31,1.13.35.31,2-.91,2.17-1.33C293.26,406.87,292.59,406.8,292.86,405.73Z" transform="translate(-2.34 -161.57)"/><path class="cls-10" d="M293.05,404.92a24.18,24.18,0,0,0-.59,3.37c-.16,1.36-.17,4.44-.17,4.66a19.1,19.1,0,0,0,.08,2.67,2.65,2.65,0,0,0,1.11,1.09.79.79,0,0,0,.82-.31c.58.31,1.09-1.29,1.21-1.18.52.45,1.29-.12,1.24-2.53,0-.15,1.05-6.09,1.23-8A24.8,24.8,0,0,0,293.05,404.92Z" transform="translate(-2.34 -161.57)"/><path class="cls-10" d="M295.86,368.41c-3.39-1.49-5.26.55-5.83,2.3a3.81,3.81,0,0,0-.18,1.09c0,5.83,4,27.38,3.11,33.47a19.74,19.74,0,0,1,4.92.17C299.17,395.4,299.57,370,295.86,368.41Z" transform="translate(-2.34 -161.57)"/><path class="cls-10" d="M276.93,342.33c-1.9.53-10.91,7.22-10.35,8,3.1,4.42,16.45,15.6,21.82,22.17,6.58,8.06,9.85.59,8.65-2.49C293.88,361.9,281.31,341.12,276.93,342.33Z" transform="translate(-2.34 -161.57)"/><path class="cls-15" d="M269.64,330.87c-2.07-1.08-6.42,14.32-4.39,17.31,5.46,8.05,23.11,26.17,23.57,26.63.25,2.5.69,5.85,1.16,9.4,1,7.73,2.3,17.35,1.77,20.88l7.34.51c1.14-8.84,1.65-29.78-.94-36.11C295.55,362.88,284.47,338.68,269.64,330.87Z" transform="translate(-2.34 -161.57)"/><path class="cls-10" d="M242.69,441.48c.13,1.42,4.1,70.15,4.1,70.15a5.87,5.87,0,0,0,4.56,1s6.41-70.19,6.17-73.46C255.65,440.62,243.87,442.64,242.69,441.48Z" transform="translate(-2.34 -161.57)"/><path class="cls-11" d="M236.55,387.58c-.68,4.87,9.69,122.66,9.69,122.66a4.62,4.62,0,0,1,5.61.16s2-25.27,5.68-51.42c3.22-22.58,2.74-44,4.53-45.39V389.66C252.89,390.26,239.59,388.91,236.55,387.58Z" transform="translate(-2.34 -161.57)"/><path class="cls-5" d="M269.21,392.94c-9.13,1.14-18.29,1.2-27.47,1.39-2.12,0-4.2.08-6.23,0,.23,7.66-.4,12.35.55,19.06,18.06,3,37.79,4.22,45.43,1.74,1.38-.45,5-2,5.22-2.51a146.88,146.88,0,0,0-1.78-23.9A56.09,56.09,0,0,1,269.21,392.94Z" transform="translate(-2.34 -161.57)"/><path class="cls-10" d="M259.92,317c-.64.46-7.26,4.13-9.14,3.84,0,.52,1.52,4.89.29,7.86.52,2.77,8.36,5.09,10.48.41C260.67,327.73,259.54,319.51,259.92,317Z" transform="translate(-2.34 -161.57)"/><path class="cls-10" d="M253,307.77c-3.48-.24-6.84.56-7.61,3.84-.28,1.18.21,11.79,5.87,13.4,2.4.68,7-3.41,7.19-6.2,0,0,.26-3.8.27-3.83C259,311.28,256.72,308,253,307.77Z" transform="translate(-2.34 -161.57)"/><path class="cls-16" d="M261.27,328.45a7,7,0,0,1-5.22,1.85c-3.62-.23-5-1.64-5-1.64s-6.75,2.42-8.62,3.16c-5.62,2.24-6.88,7-6.4,12.08.12,1.24-4.17,41.46-.47,67.63.88-.06,3.15-.09,4.27-.12l.82-17,3.61,17c11.59.06,29.07.87,36.87-1.05l.32-15.39,2.4,14.37c.59-.35,2.32-1,2.5-1.49.7-24.08-5.06-59.08-5.8-62C276.23,328.45,261.27,328.45,261.27,328.45Z" transform="translate(-2.34 -161.57)"/><path class="cls-17" d="M246.72,510.34a10.48,10.48,0,0,1-.91,1.19c-1.28,1.52-7.44,5.06-7.44,7.22,0,1.08,2.3,2.06,4.16,2.14a9,9,0,0,0,4.51-.62c1.25-.74,3.62-3.83,4-4.5.7-1.17.39-4.17.39-4.17C250.11,509.16,246.72,510.34,246.72,510.34Z" transform="translate(-2.34 -161.57)"/><path class="cls-6" d="M246.86,513.06c-1.72,1.49-7.49,4.21-7.49,6,0,.92,1.93,1.74,3.51,1.8a7.47,7.47,0,0,0,3.79-.52,17.12,17.12,0,0,0,3.39-3.79C251.85,513.46,248.53,511.61,246.86,513.06Z" transform="translate(-2.34 -161.57)"/><path class="cls-6" d="M260.28,303.6c-5.42-4.29-14.6-.19-17,5.37-1.81,4.15-3.47,1.26-3.3.16-.55,2.76.61,5.15,5.95,4.77,1.12-.08-2.48,1-2.48,1s5.65,11.85,14.47,9a13.54,13.54,0,0,0,4.91-3.4s-2.85.47-1.34-1.85C264.4,314.14,265.07,307.38,260.28,303.6Z" transform="translate(-2.34 -161.57)"/><path class="cls-18" d="M250.55,514a9.29,9.29,0,0,0,9.18,9.4H638.89a9.29,9.29,0,0,0,9.18-9.4v-9.39H250.55Z" transform="translate(-2.34 -161.57)"/><path class="cls-6" d="M601.57,285.74H297.05a19.8,19.8,0,0,0-19.56,20V504.56H621.13V305.77A19.8,19.8,0,0,0,601.57,285.74Z" transform="translate(-2.34 -161.57)"/><rect class="cls-19" x="292.22" y="143.15" width="309.51" height="184.46"/><path class="cls-9" d="M449.31,290.15a5.17,5.17,0,1,0,5.05,5.17A5.11,5.11,0,0,0,449.31,290.15Z" transform="translate(-2.34 -161.57)"/><rect class="cls-20" x="522.42" y="155.28" width="22.53" height="172.33"/><rect class="cls-5" x="522.42" y="259.73" width="17.26" height="3.39"/><rect class="cls-5" x="536.67" y="278.62" width="7.39" height="3.39"/><rect class="cls-5" x="532.42" y="184.14" width="9.5" height="3.39"/><rect class="cls-5" x="526.79" y="203.03" width="17.26" height="3.39"/><rect class="cls-5" x="526.79" y="306.97" width="17.26" height="3.39"/><rect class="cls-5" x="532.42" y="221.91" width="9.5" height="3.39"/><rect class="cls-6" x="522.42" y="231.38" width="17.26" height="3.39"/><rect class="cls-5" x="522.42" y="316.42" width="17.26" height="3.39"/><rect class="cls-5" x="526.79" y="165.24" width="17.26" height="3.39"/><rect class="cls-6" x="528.59" y="174.69" width="9.5" height="3.39"/><rect class="cls-5" x="526.79" y="288.07" width="17.26" height="3.39"/><rect class="cls-6" x="528.59" y="297.52" width="9.5" height="3.39"/><rect class="cls-5" x="526.79" y="250.28" width="17.26" height="3.39"/><rect class="cls-21" x="544.09" y="155.28" width="49.91" height="172.33"/><rect class="cls-5" x="578.75" y="269.17" width="15.25" height="3.39"/><rect class="cls-5" x="554.1" y="269.17" width="22.56" height="3.39"/><rect class="cls-5" x="544.06" y="269.17" width="7.04" height="3.39"/><rect class="cls-5" x="582.97" y="259.73" width="11.03" height="3.39"/><rect class="cls-6" x="563.47" y="259.73" width="16.68" height="3.39"/><rect class="cls-5" x="544.06" y="259.73" width="16.04" height="3.39"/><rect class="cls-5" x="584.47" y="278.62" width="9.53" height="3.39"/><rect class="cls-9" x="570.97" y="278.62" width="9.94" height="3.39"/><rect class="cls-5" x="562.72" y="278.62" width="5.06" height="3.39"/><rect class="cls-5" x="544.06" y="278.62" width="13.23" height="3.39"/><rect class="cls-5" x="544.06" y="184.14" width="20.95" height="3.39"/><rect class="cls-6" x="573.05" y="184.14" width="20.95" height="3.39"/><rect class="cls-5" x="544.06" y="193.58" width="25.72" height="3.39"/><rect class="cls-5" x="573.05" y="193.58" width="20.95" height="3.39"/><rect class="cls-6" x="557.33" y="203.03" width="5.3" height="3.39"/><rect class="cls-5" x="544.06" y="203.03" width="9.62" height="3.39"/><rect class="cls-5" x="567.78" y="203.03" width="12.75" height="3.39"/><rect class="cls-5" x="585.31" y="203.03" width="8.69" height="3.39"/><rect class="cls-5" x="553.91" y="306.97" width="6.66" height="3.39"/><rect class="cls-5" x="544.06" y="306.97" width="6.29" height="3.39"/><rect class="cls-5" x="584.66" y="306.97" width="9.34" height="3.39"/><rect class="cls-6" x="566.75" y="306.97" width="12.84" height="3.39"/><rect class="cls-9" x="555.6" y="212.48" width="15.59" height="3.39"/><rect class="cls-5" x="544.06" y="212.48" width="8.35" height="3.39"/><rect class="cls-5" x="573.05" y="212.48" width="20.95" height="3.39"/><rect class="cls-5" x="544.06" y="221.95" width="20.95" height="3.39"/><rect class="cls-5" x="573.05" y="221.95" width="20.95" height="3.39"/><rect class="cls-6" x="573.32" y="231.38" width="11.5" height="3.39"/><rect class="cls-5" x="544.06" y="231.38" width="8.73" height="3.39"/><rect class="cls-5" x="557.66" y="231.38" width="14.06" height="3.39"/><rect class="cls-5" x="586.37" y="231.38" width="7.63" height="3.39"/><rect class="cls-5" x="559.91" y="316.42" width="24.91" height="3.39"/><rect class="cls-5" x="544.06" y="316.42" width="9.85" height="3.39"/><rect class="cls-5" x="586.37" y="316.42" width="7.63" height="3.39"/><rect class="cls-5" x="544.06" y="165.24" width="20.95" height="3.39"/><rect class="cls-5" x="587.47" y="165.24" width="6.53" height="3.39"/><rect class="cls-5" x="573.05" y="165.24" width="7.86" height="3.39"/><rect class="cls-5" x="560.66" y="174.69" width="9.33" height="3.39"/><rect class="cls-5" x="575.05" y="174.69" width="9.77" height="3.39"/><rect class="cls-5" x="544.06" y="174.69" width="14.73" height="3.39"/><rect class="cls-5" x="586.37" y="174.69" width="7.63" height="3.39"/><rect class="cls-5" x="544.06" y="288.07" width="20.95" height="3.39"/><rect class="cls-6" x="573.05" y="288.07" width="20.95" height="3.39"/><rect class="cls-5" x="566.1" y="297.52" width="18.72" height="3.39"/><rect class="cls-5" x="544.06" y="297.52" width="18.67" height="3.39"/><rect class="cls-5" x="586.37" y="297.52" width="7.63" height="3.39"/><rect class="cls-5" x="544.06" y="240.83" width="20.95" height="3.39"/><rect class="cls-5" x="573.05" y="240.83" width="20.95" height="3.39"/><rect class="cls-5" x="544.06" y="250.28" width="20.95" height="3.39"/><rect class="cls-5" x="573.05" y="250.28" width="20.95" height="3.39"/><path class="cls-10" d="M467.1,368.7a10.82,10.82,0,0,1-2-2.18,3.7,3.7,0,0,0,.12,2.3c.25.39,2.72,1.57,3,1.21C468.73,369.5,467.79,369.31,467.1,368.7Z" transform="translate(-2.34 -161.57)"/><path class="cls-10" d="M460.34,367.49c.38,1.79.65,3.36.68,3.51.54,2.34,5.49,1.17,5.55.66.14-1.26-.74-2.26-1.39-5.13A25.16,25.16,0,0,0,460.34,367.49Z" transform="translate(-2.34 -161.57)"/><path class="cls-10" d="M492.34,309.61c-4.08-2-20.27,16.1-24.89,23.5-1.76,2.81.08,10.76,8,4.05,6.49-5.47,21.67-14,25.53-17.76C501.72,318.72,494.11,310.47,492.34,309.61Z" transform="translate(-2.34 -161.57)"/><path class="cls-10" d="M468.91,331.74c-3.94.91-9.84,32.76-8.57,35.75a19.67,19.67,0,0,1,4.62,1c.23-6.15,8.11-26.6,9.24-32.33a3.61,3.61,0,0,0,0-1.1C474,333.26,472.52,330.9,468.91,331.74Z" transform="translate(-2.34 -161.57)"/><path class="cls-22" d="M493.82,305.89c-5.37-2.72-23.24,19.35-27,25.16-3.7,5.54-7.26,25.63-7.89,34.29l7.1.94c.19-3.47,3.27-12.41,5.74-19.6,1.14-3.29,2.21-6.41,2.93-8.75.53-.35,26.83-16.1,28.82-18C503.82,319.65,495.62,306.81,493.82,305.89Z" transform="translate(-2.34 -161.57)"/><path class="cls-10" d="M499.8,411.17c.21,1.41,8.69,72.18,8.69,72.18a5.81,5.81,0,0,0,4.62.71s1.79-72.88,1.34-76.13C512.68,409.49,501,412.25,499.8,411.17Z" transform="translate(-2.34 -161.57)"/><path class="cls-22" d="M512.79,483.08l-3.93-1.87s-.74,1.27-1.35,2.1c-1.19,1.6-7.26,3.09-7.12,5.24.07,1.09,2.42,1.92,4.29,1.88a13,13,0,0,0,4.46-.91c1.07-.43,3.52-1.61,3.88-2.31a3.08,3.08,0,0,0,0-2.52C513.12,483.47,512.79,483.08,512.79,483.08Z" transform="translate(-2.34 -161.57)"/><path class="cls-22" d="M497.7,478.17l-4.17-1.26s-.51.07-1.24,1a3.1,3.1,0,0,0-1.7,1.86c-.2.76,1,2.91,1.32,4.32a8.94,8.94,0,0,0,2.7,3.66c1.36,1.29,3.66,2.26,4.44,1.5,1.55-1.51-1.95-6.69-1.76-8.67C497.4,479.6,497.7,478.17,497.7,478.17Z" transform="translate(-2.34 -161.57)"/><path class="cls-10" d="M492.29,478s1,2.29,1.94,2.56a6.38,6.38,0,0,0,3.06.11,9.45,9.45,0,0,1,.66-2.53l-4.4-1.75S493,477,492.29,478Z" transform="translate(-2.34 -161.57)"/><path class="cls-6" d="M510.59,363.23c-2.64,16-.18,43.89.87,65.93.47,9.77-18.9,48.45-18.9,48.45a5.14,5.14,0,0,0,5,1.56s28.62-34,30.43-49.23c3.78-31.86,7-64.81,6.75-67.38C531.66,363.74,519.71,364.28,510.59,363.23Z" transform="translate(-2.34 -161.57)"/><path class="cls-10" d="M507.51,483.31a6.34,6.34,0,0,0,2.34,2c.84.4,3.15-.59,3.15-.59.13-1.22.16-2,.16-2L508.72,481A9.8,9.8,0,0,1,507.51,483.31Z" transform="translate(-2.34 -161.57)"/><path class="cls-6" d="M489,357.76C488.66,362.67,507.86,482,507.86,482c.06.2,3.88,2,5.61-.19,0,0,.18-27.78,2.24-54.12,1.79-22.73-1.09-69.46-1.09-69.46C505.51,359.41,492.15,358.9,489,357.76Z" transform="translate(-2.34 -161.57)"/><path class="cls-23" d="M489.09,359.27l-3.27,12.64c5.66,3.5,14.13,4.48,22.47,4.36,1.49,0,5.48-8.45,5.48-8.45l2.74,8.39a55.4,55.4,0,0,0,18.84-3.35c2.52-6.91-.72-18.09-.72-18.09Z" transform="translate(-2.34 -161.57)"/><path class="cls-10" d="M510.06,289.16c-.63.49-7.14,4.33-9,4.09,0,.53,1.45,6,.31,9,.6,2.75,8.26,2.57,10.25-2.17C510.67,298.8,509.75,291.72,510.06,289.16Z" transform="translate(-2.34 -161.57)"/><path class="cls-22" d="M519.41,302c-2-.42-7.83-1.86-7.83-1.86s-4,3.69-6.75,3.95c-1.86.19-3.5-1.78-3.5-1.78s-6.68,2.22-7.88,3a10.49,10.49,0,0,0-4.8,11.39c2.57,13.23-3.65,44,.33,45.79,5.19,2.31,34.34,4.07,45.6-3.19a3,3,0,0,0,1.34-2.81c-.57-6.78-2.85-32-6.23-43C528.19,308.48,525.33,303.23,519.41,302Z" transform="translate(-2.34 -161.57)"/><path class="cls-10" d="M597.44,323.64a2.58,2.58,0,0,0-1.27-.9,17.15,17.15,0,0,0-2.65.37c-.21,0-3.24.57-4.56,1a23,23,0,0,0-3.21,1.15,23.56,23.56,0,0,0,.59,4.9c1.86-.5,7.54-2.55,7.69-2.57,2.38-.36,2.81-1.22,2.28-1.65-.13-.1,1.37-.87,1-1.4A.78.78,0,0,0,597.44,323.64Z" transform="translate(-2.34 -161.57)"/><path class="cls-10" d="M554.36,325.75c-7.39-4.17-20.67-15.43-25.55-17.73-.89-.42-6,9.59-6.15,11.55-.45,4.52,22.17,13.38,30.71,15.13C556.61,335.36,563.42,330.87,554.36,325.75Z" transform="translate(-2.34 -161.57)"/><path class="cls-10" d="M553.89,327.3a3.27,3.27,0,0,0-1,.37c-1.62.85-3.32,3-1.28,6.13,2.23,3.38,27.16-1.32,36.84-4.3a19,19,0,0,1-1-4.82C581.56,326.61,559.65,326.37,553.89,327.3Z" transform="translate(-2.34 -161.57)"/><path class="cls-22" d="M564.58,325.92c-3.48.09-6.78.17-9.22.31-.51-.38-17.81-15.56-33.41-23.4-1.79-.9.29,14.75.06,16.75-.68,6,22.89,14.93,29.65,16.43,6.48,1.54,26.56-2.13,34.89-4.56l-1.6-7C581.64,325.51,572.18,325.74,564.58,325.92Z" transform="translate(-2.34 -161.57)"/><path class="cls-5" d="M495.58,287.3A19.27,19.27,0,0,0,494.8,298a17,17,0,0,1-1.44,11.73c-1.68,3-1.89,7.23-1.79,9.23.6,11.66,7.3,17.48,9.36,16.41,2.25-1.16-3-12.54-.07-23,2-7.27.33-9.57-.15-12.69A20.84,20.84,0,0,1,501.9,290C501.85,289.94,497.31,284.8,495.58,287.3Z" transform="translate(-2.34 -161.57)"/><path class="cls-10" d="M502.3,279.59c-3.48-.15-6.24,1.33-6.93,4.63-.24,1.18.54,11.77,6.25,13.23,2.41.61,6.9-3.6,7-6.39,0,0,.16-3.81.16-3.85C509,283.51,506,279.74,502.3,279.59Z" transform="translate(-2.34 -161.57)"/><path class="cls-5" d="M518.61,293.89a17,17,0,0,0-3.51-16.63c-3.54-4.09-8.47-5.24-11.16-4.15-3.36,1.38-3.39,3-3.39,3a5.5,5.5,0,0,0-3.58.59c-4.05,2.16-3.84,11.29-.69,14.14-2-9.82,4.13-11.32,4.13-11.32s4.29.48,6.37,3c1.89,2.28,3.75,8.35,2.55,13-.92,3.53-3.69,6.05-.88,14.43,4,12-4.73,24.7-1.28,26.14,3.14,1.31,13.88-5,15.4-18.19.26-2.26.15-7.05-2.31-10.58A14.85,14.85,0,0,1,518.61,293.89Z" transform="translate(-2.34 -161.57)"/><path class="cls-10" d="M508.62,285.75a3.22,3.22,0,0,0-1.54.58c.39,1.25,1.29,3.24,1.73,4.22a3.34,3.34,0,0,0,1.84-2.67C510.58,286.92,509.58,285.69,508.62,285.75Z" transform="translate(-2.34 -161.57)"/><path class="cls-24" d="M600.33,313.73l-8.5-1.88a2.21,2.21,0,0,0-2.63,1.69L585,332.44a2.21,2.21,0,0,0,1.68,2.63l8.51,1.87a2.2,2.2,0,0,0,2.63-1.68l4.16-18.9A2.21,2.21,0,0,0,600.33,313.73Z" transform="translate(-2.34 -161.57)"/><path class="cls-25" d="M595.34,316.15a1.11,1.11,0,1,0,.84,1.32A1.1,1.1,0,0,0,595.34,316.15Z" transform="translate(-2.34 -161.57)"/><path class="cls-10" d="M599.63,326.46c-2.4-.28-2.94.89-2.46,1.38.12.12-1.69,0-1.1,1.28.09.2-.45.36-.27.84a1.51,1.51,0,0,0,1.16,1,2.91,2.91,0,0,0,1.91,0C600.09,330.32,601.05,326.62,599.63,326.46Z" transform="translate(-2.34 -161.57)"/><polygon class="cls-26" points="391.41 107.58 373.73 107.58 373.73 327.61 391.41 327.61 445.32 327.61 445.32 83.14 391.41 83.14 391.41 107.58"/><rect class="cls-5" x="373.73" y="240.19" width="24.71" height="4.47"/><rect class="cls-6" x="394.11" y="265.09" width="10.58" height="4.47"/><rect class="cls-5" x="388.04" y="140.6" width="13.6" height="4.47"/><rect class="cls-5" x="379.98" y="165.5" width="24.71" height="4.47"/><rect class="cls-5" x="379.98" y="302.44" width="24.71" height="4.47"/><rect class="cls-5" x="388.04" y="190.37" width="13.6" height="4.47"/><rect class="cls-5" x="373.73" y="202.84" width="24.71" height="4.47"/><rect class="cls-5" x="373.73" y="314.89" width="24.71" height="4.47"/><rect class="cls-5" x="379.98" y="115.7" width="24.71" height="4.47"/><rect class="cls-5" x="382.56" y="128.15" width="13.6" height="4.47"/><rect class="cls-5" x="379.98" y="277.54" width="24.71" height="4.47"/><rect class="cls-5" x="382.56" y="289.99" width="13.6" height="4.47"/><rect class="cls-5" x="379.98" y="227.74" width="24.71" height="4.47"/><polygon class="cls-27" points="422.27 107.58 404.59 107.58 404.59 327.61 422.27 327.61 476.19 327.61 476.19 83.14 422.27 83.14 422.27 107.58"/><rect class="cls-5" x="457.21" y="252.64" width="18.98" height="4.47"/><rect class="cls-6" x="442.02" y="252.64" width="9.34" height="4.47"/><rect class="cls-5" x="404.69" y="252.64" width="30.58" height="4.47"/><rect class="cls-5" x="466.77" y="240.19" width="9.42" height="4.47"/><rect class="cls-5" x="427.12" y="240.19" width="31.5" height="4.47"/><rect class="cls-5" x="404.69" y="240.19" width="12.58" height="4.47"/><rect class="cls-5" x="471.08" y="265.09" width="5.11" height="4.47"/><rect class="cls-9" x="423.46" y="265.09" width="39.18" height="4.47"/><rect class="cls-5" x="404.69" y="265.09" width="11.45" height="4.47"/><rect class="cls-5" x="419.24" y="140.6" width="15.44" height="4.47"/><rect class="cls-6" x="404.69" y="140.6" width="8.64" height="4.47"/><rect class="cls-5" x="446.2" y="140.6" width="15.79" height="4.47"/><rect class="cls-5" x="469.86" y="140.6" width="6.33" height="4.47"/><rect class="cls-9" x="425.71" y="153.05" width="15.81" height="4.47"/><rect class="cls-5" x="404.69" y="153.05" width="14.55" height="4.47"/><rect class="cls-5" x="457.21" y="153.05" width="18.98" height="4.47"/><rect class="cls-5" x="446.2" y="153.05" width="5.1" height="4.47"/><rect class="cls-5" x="428.52" y="165.5" width="6.16" height="4.47"/><rect class="cls-5" x="404.69" y="165.5" width="18.76" height="4.47"/><rect class="cls-5" x="471.27" y="165.5" width="4.92" height="4.47"/><rect class="cls-6" x="436.75" y="165.5" width="30.21" height="4.47"/><rect class="cls-5" x="404.69" y="302.44" width="26.64" height="4.47"/><rect class="cls-5" x="438.64" y="302.44" width="37.54" height="4.47"/><rect class="cls-5" x="404.69" y="177.95" width="21.02" height="4.47"/><rect class="cls-5" x="434.68" y="177.95" width="7.74" height="4.47"/><rect class="cls-5" x="449.52" y="177.95" width="26.67" height="4.47"/><rect class="cls-5" x="404.69" y="190.42" width="9.49" height="4.47"/><rect class="cls-5" x="423.79" y="190.42" width="10.89" height="4.47"/><rect class="cls-5" x="446.2" y="190.42" width="29.99" height="4.47"/><rect class="cls-5" x="453.83" y="202.84" width="6.47" height="4.47"/><rect class="cls-9" x="432.65" y="202.84" width="11.81" height="4.47"/><rect class="cls-6" x="404.69" y="202.84" width="18.95" height="4.47"/><rect class="cls-5" x="465.27" y="202.84" width="10.92" height="4.47"/><rect class="cls-6" x="451.96" y="314.89" width="10.69" height="4.47"/><rect class="cls-5" x="418.21" y="314.89" width="28.87" height="4.47"/><rect class="cls-5" x="404.69" y="314.89" width="6.77" height="4.47"/><rect class="cls-5" x="467.89" y="314.89" width="8.29" height="4.47"/><rect class="cls-5" x="404.69" y="115.7" width="29.99" height="4.47"/><rect class="cls-5" x="446.2" y="115.7" width="29.99" height="4.47"/><rect class="cls-5" x="450.46" y="128.15" width="12.59" height="4.47"/><rect class="cls-5" x="429.08" y="128.15" width="18.28" height="4.47"/><rect class="cls-5" x="404.69" y="128.15" width="18.2" height="4.47"/><rect class="cls-5" x="465.27" y="128.15" width="10.92" height="4.47"/><rect class="cls-5" x="404.69" y="277.54" width="29.99" height="4.47"/><rect class="cls-5" x="446.2" y="277.54" width="29.99" height="4.47"/><rect class="cls-5" x="420.65" y="289.99" width="38.81" height="4.47"/><rect class="cls-6" x="404.69" y="289.99" width="9.77" height="4.47"/><rect class="cls-5" x="465.27" y="289.99" width="10.92" height="4.47"/><rect class="cls-5" x="424.4" y="215.29" width="10.28" height="4.47"/><rect class="cls-5" x="404.69" y="215.29" width="12.58" height="4.47"/><rect class="cls-6" x="446.2" y="215.29" width="29.99" height="4.47"/><rect class="cls-5" x="404.69" y="227.74" width="29.99" height="4.47"/><rect class="cls-5" x="446.2" y="227.74" width="29.99" height="4.47"/><polygon class="cls-28" points="342.23 156.61 304.1 156.61 304.1 173.71 291.6 173.71 291.6 327.61 354.73 327.61 354.73 173.71 342.23 173.71 342.23 156.61"/><rect class="cls-5" x="297" y="275.58" width="21.33" height="4.27"/><rect class="cls-6" x="291.6" y="299.81" width="21.33" height="4.27"/><rect class="cls-5" x="291.6" y="255.1" width="21.33" height="4.27"/><rect class="cls-6" x="303.95" y="244.81" width="11.74" height="4.27"/><rect class="cls-5" x="291.6" y="284.38" width="21.33" height="4.27"/><rect class="cls-5" x="297" y="227.19" width="21.33" height="4.27"/><rect class="cls-5" x="309.1" y="317.63" width="9.23" height="4.27"/><rect class="cls-5" x="303.95" y="207.06" width="11.74" height="4.27"/><rect class="cls-6" x="297" y="186.61" width="21.33" height="4.27"/><polygon class="cls-29" points="368.32 156.61 330.67 156.61 330.67 173.71 318.32 173.71 318.32 327.61 380.67 327.61 380.67 173.71 368.32 173.71 368.32 156.61"/><rect class="cls-6" x="318.32" y="216.23" width="14.68" height="4.27"/><rect class="cls-5" x="339.19" y="216.23" width="11.24" height="4.27"/><rect class="cls-5" x="318.32" y="227.19" width="26.15" height="4.27"/><rect class="cls-9" x="318.32" y="244.7" width="33.87" height="4.27"/><rect class="cls-5" x="355.94" y="244.7" width="18.88" height="4.27"/><rect class="cls-5" x="318.32" y="255.01" width="26.15" height="4.27"/><rect class="cls-5" x="318.32" y="266.73" width="48.52" height="4.27"/><rect class="cls-5" x="318.32" y="278.75" width="26.15" height="4.27"/><rect class="cls-5" x="318.32" y="297.68" width="42.8" height="4.27"/><rect class="cls-5" x="368.44" y="297.68" width="12.23" height="4.27"/><rect class="cls-5" x="318.32" y="307.46" width="40.69" height="4.27"/><rect class="cls-5" x="318.32" y="317.63" width="62.35" height="4.27"/><rect class="cls-9" x="318.32" y="288.69" width="26.15" height="4.27"/><rect class="cls-5" x="354.52" y="209.42" width="26.15" height="4.27"/><rect class="cls-5" x="323.34" y="209.42" width="26.15" height="4.27"/><rect class="cls-5" x="354.52" y="222.12" width="26.15" height="4.27"/><rect class="cls-5" x="346.27" y="234.88" width="34.39" height="4.27"/><rect class="cls-5" x="334.32" y="190.83" width="10.16" height="4.27"/><rect class="cls-5" x="318.32" y="190.83" width="11.5" height="4.27"/><rect class="cls-5" x="371.63" y="185.2" width="9.04" height="4.27"/><rect class="cls-6" x="354.52" y="185.2" width="11.48" height="4.27"/><rect class="cls-6" x="359.25" y="199.25" width="8.38" height="4.27"/><rect class="cls-5" x="333.24" y="199.25" width="18.14" height="4.27"/><rect class="cls-5" x="366.84" y="255.01" width="13.82" height="4.27"/><rect class="cls-5" x="349.03" y="255.01" width="13.82" height="4.27"/><rect class="cls-6" x="371.15" y="266.73" width="9.52" height="4.27"/><rect class="cls-6" x="354.52" y="278.75" width="26.15" height="4.27"/><rect class="cls-30" x="661.58" y="144.35" width="13.13" height="23.78" rx="2.21"/><path class="cls-10" d="M670.21,343.93c.06-.54.27-1.1-.45-1.08-.47,0-1,1.94-.88,2.39.61,1,1.19.61,1.63,1.62A10,10,0,0,1,670.21,343.93Z" transform="translate(-2.34 -161.57)"/><path class="cls-10" d="M667.34,342.69a12.21,12.21,0,0,0-1.54-1.58,2.79,2.79,0,0,0-1.5-.05.73.73,0,0,0-.48.65c-.66.13-.17,1.4-.34,1.4-.66,0-1,.8.41,2.24.08.09,2.53,4.31,3.45,5.58a28.34,28.34,0,0,0,3.84-2.92,16.54,16.54,0,0,0-1.39-2.38C669.16,344.71,667.46,342.82,667.34,342.69Z" transform="translate(-2.34 -161.57)"/><path class="cls-10" d="M701.62,341.06c-3,4.51-8.44,21-12.57,28.45-5.07,9.09,3.08,9.38,5.51,7.13,6.38-5.95,21.07-25.29,18.33-28.92C711.7,346.15,702.16,340.25,701.62,341.06Z" transform="translate(-2.34 -161.57)"/><path class="cls-31" d="M701.62,341.06c-2.09,3.19-5.79,12.35-9.76,19.63a64.38,64.38,0,0,0,7.85,5.16c1,.54,3.93,2.28,4.95,2.74,6.05-7.77,10.06-18.45,8.23-20.87C711.7,346.15,702.16,340.25,701.62,341.06Z" transform="translate(-2.34 -161.57)"/><path class="cls-10" d="M693.87,371.66c-3.66-4.55-20.1-19-23.15-24.37a20,20,0,0,1-4,2.91c5.19,8.69,20.57,28.86,24.49,27.85,3.59-.93,3.79-3.69,3.16-5.41A3.75,3.75,0,0,0,693.87,371.66Z" transform="translate(-2.34 -161.57)"/><path class="cls-10" d="M724.43,444.49c.12,1.43,4.1,72.59,4.1,72.59a5.86,5.86,0,0,0,4.56,1s6.41-72.62,6.17-75.9C737.39,443.63,725.6,445.65,724.43,444.49Z" transform="translate(-2.34 -161.57)"/><path class="cls-6" d="M732.83,517.08,729,515s-.82,1.22-1.48,2c-1.29,1.52-7.44,2.62-7.44,4.78,0,1.09,2.29,2.07,4.16,2.14a8.84,8.84,0,0,0,4.51-.62c1.25-.73,3.62-1.38,4-2.06a3.1,3.1,0,0,0,.15-2.52C733.14,517.5,732.83,517.08,732.83,517.08Z" transform="translate(-2.34 -161.57)"/><path class="cls-10" d="M727.55,517a6.33,6.33,0,0,0,2.21,2.12c.81.45,3.19-.39,3.19-.39.2-1.21.28-2,.28-2l-4.32-1.94A9.89,9.89,0,0,1,727.55,517Z" transform="translate(-2.34 -161.57)"/><path class="cls-5" d="M718.28,390.59c-.68,4.88,9.7,125.1,9.7,125.1,0,.2,3.75,2.21,5.61.16,0,0,1.94-27.71,5.68-53.86,3.22-22.57,4.52-69.32,4.52-69.32C734.63,393.28,721.32,391.92,718.28,390.59Z" transform="translate(-2.34 -161.57)"/><path class="cls-10" d="M704.55,444.49c.13,1.43,4.1,72.59,4.1,72.59a5.87,5.87,0,0,0,4.56,1s6.41-72.62,6.17-75.9C717.51,443.63,705.73,445.65,704.55,444.49Z" transform="translate(-2.34 -161.57)"/><path class="cls-6" d="M713,517.08,709.15,515s-.81,1.22-1.48,2c-1.28,1.52-7.44,2.62-7.44,4.78,0,1.09,2.29,2.07,4.16,2.14a12.71,12.71,0,0,0,4.51-.62c1.1-.36,3.62-1.38,4-2.06a3.1,3.1,0,0,0,.15-2.52C713.27,517.5,713,517.08,713,517.08Z" transform="translate(-2.34 -161.57)"/><path class="cls-10" d="M707.67,517a6.33,6.33,0,0,0,2.21,2.12c.82.45,3.19-.39,3.19-.39.2-1.21.28-2,.28-2L709,514.74A9.45,9.45,0,0,1,707.67,517Z" transform="translate(-2.34 -161.57)"/><path class="cls-5" d="M698.41,390.59c-.68,4.88,9.69,125.1,9.69,125.1,0,.2,3.75,2.21,5.61.16,0,0,1.94-27.71,5.68-53.86,3.22-22.57,2.74-44,4.53-45.39V392.67C714.75,393.28,701.45,391.92,698.41,390.59Z" transform="translate(-2.34 -161.57)"/><path class="cls-32" d="M697.7,388.62s-2.91,14-1.51,15.21c3.17,2.76,15.06.22,24.11-.9s25.72.73,26.16-1.12c1.17-5-1-16-1-16Z" transform="translate(-2.34 -161.57)"/><path class="cls-10" d="M721.23,323.36c-.63.47-7.25,4.14-9.13,3.86,0,.52,1.28,6,.06,9,.53,2.76,8.19,2.78,10.31-1.9C721.59,333,720.86,325.91,721.23,323.36Z" transform="translate(-2.34 -161.57)"/><path class="cls-10" d="M714.3,314.18c-3.48-.23-6.84.57-7.61,3.85-.28,1.18.23,11.79,5.89,13.39,2.39.68,7-3.41,7.18-6.2,0,0,.26-3.8.26-3.84C720.28,317.69,718,314.44,714.3,314.18Z" transform="translate(-2.34 -161.57)"/><path class="cls-6" d="M740.7,346.77c-2.12-5.84-4.57-8.94-10.45-10.35-2-.47-7.78-2.07-7.78-2.07s-4.13,3.58-6.85,3.77c-1.87.14-3.46-1.87-3.46-1.87s-6.73,2-7.95,2.75c-4.75,2.75-4.83,7.4-5.1,11.26-2.77,38.44-4.51,44.06-3.3,46.19,3,5.21,51.93,1.76,51-4.68C743.79,370.32,741.36,348.57,740.7,346.77Z" transform="translate(-2.34 -161.57)"/><path class="cls-33" d="M722.11,312.44c-5.07-4.6-12.93.27-12.93.27-6,1.14-4.69,9.9-1.94,11.18-1.3-6.45,3.07-8.53,3.07-8.53,8.11-.12,10.93,9.56,10.39,12.06C720.7,327.42,729.75,319.37,722.11,312.44Z" transform="translate(-2.34 -161.57)"/><path class="cls-10" d="M719.88,319.92a3.1,3.1,0,0,0-1.55.54c.36,1.26,1.21,3.27,1.62,4.26a3.33,3.33,0,0,0,1.91-2.62C721.82,321.13,720.85,319.88,719.88,319.92Z" transform="translate(-2.34 -161.57)"/><path class="cls-10" d="M677.35,317.81c-.47,0-1,1.95-.85,2.4.64,1,1.2.6,1.66,1.59a9.9,9.9,0,0,1-.34-2.92C677.86,318.34,678.07,317.77,677.35,317.81Z" transform="translate(-2.34 -161.57)"/><path class="cls-10" d="M674.05,315.85a16.49,16.49,0,0,0-1.74-2,2.61,2.61,0,0,0-1.55-.16.79.79,0,0,0-.44.76c-.65.13,0,1.69-.2,1.69-.69,0-.92.9.63,2.74.1.11,3,5.39,4.11,7a24.52,24.52,0,0,0,3.67-3.3,24.63,24.63,0,0,0-1.67-3C676.12,318.41,674.19,316,674.05,315.85Z" transform="translate(-2.34 -161.57)"/><path class="cls-10" d="M732.29,340.54c-5.39-.3-22.42,3.29-30.91,3.45-10.4.2-6.55,7.39-3.38,8.35,8.35,2.52,32.45,5.48,34.21,1.28C733,351.81,733.27,340.59,732.29,340.54Z" transform="translate(-2.34 -161.57)"/><path class="cls-34" d="M732.29,340.54c-3.5-1.5-13.58,1.21-21.87,1.44a28.34,28.34,0,0,0-.38,15c9.75,1.32,18.53.53,21.29-.73C738.42,353,736.82,342.47,732.29,340.54Z" transform="translate(-2.34 -161.57)"/><path class="cls-10" d="M701.9,346.24c-3.72-4.49-20.39-18.72-23.53-24a19.57,19.57,0,0,1-3.92,3c5.33,8.61,21,28.54,24.92,27.46,3.57-1,3.73-3.75,3.07-5.45A3.68,3.68,0,0,0,701.9,346.24Z" transform="translate(-2.34 -161.57)"/><path class="cls-35" d="M741.44,318.18c-1.71-23.56-20.85-13.63-20.4-7.44.11,1.52.94,2.41,2.18.81,2.1-2.71,9.64-5.13,5.26,9.23-1.16,3.78-6.09,8.66,4.62,15.51,9.7,6.19,1.7,8.56,2.24,11.42,1.37,7.34,20.42-8.58,10.34-19.57C743.64,325.92,742,325.28,741.44,318.18Z" transform="translate(-2.34 -161.57)"/><path class="cls-6" d="M722.17,310.27a2.28,2.28,0,0,0-1.38-.35,2.93,2.93,0,0,0-1.77.87,12.17,12.17,0,0,1,4.5,3.09C724.07,312.69,724,311.4,722.17,310.27Z" transform="translate(-2.34 -161.57)"/><path class="cls-36" d="M670.49,309.36a1.11,1.11,0,1,0,1.1,1.11A1.11,1.11,0,0,0,670.49,309.36Z" transform="translate(-2.34 -161.57)"/><path class="cls-5" d="M337.7,211.71a11.21,11.21,0,0,0-8.58,4.21h17.16A11.21,11.21,0,0,0,337.7,211.71Z" transform="translate(-2.34 -161.57)"/><path class="cls-5" d="M508.49,212.39c-3,0-.37-4.9-7.61-5.94-12.36-1.78-10-6.81-20-6.81-5.27,0-8.82,5.82-13.67,5.29-8.24-.92-12.63-11.27-21.55-11.27-9.64,0-13.68,12.09-22.64,12.91-5.65.51-9.2-7.09-15.33-7.09-7.94,0-10.92,9.32-18.15,11-3.32.78-6.1-3.59-9.77-3.59a17.25,17.25,0,0,0-14.93,9H517.07C515.09,213.48,512,212.39,508.49,212.39Z" transform="translate(-2.34 -161.57)"/><path class="cls-6" d="M102.6,515.82c-.66-.79-1.48-2-1.48-2l-3.8,2.12s-.31.42-.12,1.62a3.14,3.14,0,0,0,.15,2.52c.4.67,2.92,1.7,4,2.06a12.94,12.94,0,0,0,4.51.62c1.87-.08,4.16-1.06,4.16-2.15C110,518.44,103.89,517.34,102.6,515.82Z" transform="translate(-2.34 -161.57)"/><path class="cls-10" d="M102.22,513.68l-5.11.92a17.08,17.08,0,0,0,.09,2.94s2.38.84,3.19.4a6.42,6.42,0,0,0,2.21-2.12A1.88,1.88,0,0,1,102.22,513.68Z" transform="translate(-2.34 -161.57)"/><path class="cls-6" d="M86.36,395.17V419.1c1.78,1.4,12.22,28.52,16.72,44.16.15.52-6.52,46.51-6.52,51.43,1.86,2,5.56,0,5.61-.16,0,0,14.42-23.29,16.74-51.43,2.69-32.68-6.68-67.39-7-70C108.83,394.42,95.52,395.77,86.36,395.17Z" transform="translate(-2.34 -161.57)"/><path class="cls-6" d="M73.79,516.5c-.6-.84-1.32-2.12-1.32-2.12l-4,1.81s-.34.39-.24,1.61a3.11,3.11,0,0,0,0,2.52c.35.7,2.66,1.53,3.85,2.36a8.93,8.93,0,0,0,4.44,1c1.87.07,4.24-.73,4.32-1.81C81,519.69,75,518.11,73.79,516.5Z" transform="translate(-2.34 -161.57)"/><path class="cls-10" d="M73.28,514.21l-5,.55s-.06,1.82,0,3c0,0,2.3,1,3.15.64a6.36,6.36,0,0,0,2.37-1.94A2.7,2.7,0,0,1,73.28,514.21Z" transform="translate(-2.34 -161.57)"/><path class="cls-6" d="M73,389.77c-11.39,21.68,3.68,53.38,5.64,73.81,0,0-10.74,28.16-10.74,51.32,1.69,2.19,5.54.48,5.6.28,0-9.41,18.81-33.2,20.89-50.25,4-32.63,1.18-67.4,1-70.05C92.27,390.87,80.89,386.42,73,389.77Z" transform="translate(-2.34 -161.57)"/><path class="cls-10" d="M99.08,325.08c.21,2.57-1,9.6-2,10.88,1.8,4.81,9.45,5.3,10.16,2.57-1-3,.61-8.49.66-9C106,329.68,99.69,325.59,99.08,325.08Z" transform="translate(-2.34 -161.57)"/><path class="cls-10" d="M106.61,316.37c-3.74,0-6.2,3.11-6.19,6.81,0,0,0,3.85,0,3.85,0,2.79,4.33,7.18,6.76,6.66,5.75-1.23,7-11.78,6.76-13C113.39,317.39,110.09,316.36,106.61,316.37Z" transform="translate(-2.34 -161.57)"/><path class="cls-37" d="M115.05,341.8c-1.18-.79-7.76-3.27-7.76-3.27s-1.72,1.9-3.57,1.65c-2.71-.39-6.6-4.22-6.6-4.22s-6,.91-7.89,1.54c-17.11,5.67-26.43,26.74-23.34,76.95.87.12,3.18.18,4.27.38l3.18-16.08,1.17,17c16.78,7.75,39.78,2.12,41.64-10.32a167,167,0,0,1-1.25-22.54c0-2.5.1-4.86.22-7.08.56-10.76,2-17.87,2.11-19.61C117.63,350.94,119.6,344.85,115.05,341.8Z" transform="translate(-2.34 -161.57)"/><path class="cls-6" d="M103.71,340.17c-2.7-.37-6.58-4.21-6.58-4.21l-4,.54a17,17,0,0,0-3.86,1c7.36,4.18,18.3,15,18.3,15s5.12-6.08,5.88-11.55a55.2,55.2,0,0,0-6.12-2.46S105.57,340.43,103.71,340.17Z" transform="translate(-2.34 -161.57)"/><path class="cls-6" d="M98.93,310.45c-5.32,4.74-4.53,13.73,0,17.79,0,0,.75-5.87,2.62-8.5,15.31,3.36,16.88-.6,16.83-2.23C118.15,310.12,105.88,304.24,98.93,310.45Z" transform="translate(-2.34 -161.57)"/><path class="cls-10" d="M99.87,321.67a2.36,2.36,0,0,0-1.54,2.5,3.32,3.32,0,0,0,2.35,2.23,45.42,45.42,0,0,0,.81-4.49A3.13,3.13,0,0,0,99.87,321.67Z" transform="translate(-2.34 -161.57)"/><path class="cls-10" d="M161.93,388.42a9.58,9.58,0,0,1-2.88.62c1.09.12.92.77,2,1.06.46,0,2.17-1.14,2-1.57C162.89,387.83,162.42,388.21,161.93,388.42Z" transform="translate(-2.34 -161.57)"/><path class="cls-10" d="M166,391c-.2-.07-3.09-1.13-4.43-1.46a25.64,25.64,0,0,0-3.36-.62,24.56,24.56,0,0,0-1.94,4.54c1.86.5,7.8,1.58,7.94,1.64,2.24.88,3,.36,2.8-.29-.06-.15,1.62-.07,1.53-.73a.8.8,0,0,0,.58-.66,2.6,2.6,0,0,0-.65-1.41A17.36,17.36,0,0,0,166,391Z" transform="translate(-2.34 -161.57)"/><path class="cls-10" d="M127.18,374.23c-1.83-.08-4.4,1-4.18,4.66.24,4,24.16,12.48,34,14.76a19.13,19.13,0,0,1,1.55-4.67c-6-1.27-24.86-12.47-30.31-14.55A3.42,3.42,0,0,0,127.18,374.23Z" transform="translate(-2.34 -161.57)"/><path class="cls-10" d="M116.24,345.17c-.56-.81-10,5.31-11.12,6.91-2.65,3.69,12.47,22.69,19,28.49,2.47,2.2,10.62,1.73,5.34-7.25C125.15,366,119.3,349.61,116.24,345.17Z" transform="translate(-2.34 -161.57)"/><path class="cls-37" d="M123.49,357.67c-2.39-5.6-4.89-11.42-6.5-13.74-.24-.36-.41,0-.88-.05-2-.09-10.77,5.81-12,7.49-3.61,5,13.8,25.31,19.1,30.05,5,4.62,24.84,11.41,33.52,13.42l2.08-7.06c-3.49-.73-25.12-12.17-27.38-13.26C131.18,373.93,125.9,363.29,123.49,357.67Z" transform="translate(-2.34 -161.57)"/><rect class="cls-38" x="111.58" y="144.02" width="27.52" height="217.76"/><rect class="cls-39" x="139.1" y="279.24" width="10.36" height="5.14"/><rect class="cls-39" x="194.75" y="316.52" width="8.48" height="5.14"/><rect class="cls-5" x="117.16" y="289.91" width="21.94" height="5.14"/><rect class="cls-5" x="111.6" y="319.09" width="21.94" height="5.14"/><rect class="cls-5" x="111.6" y="265.23" width="21.94" height="5.14"/><rect class="cls-6" x="124.31" y="252.84" width="12.08" height="5.14"/><rect class="cls-5" x="124.31" y="203.53" width="12.08" height="5.14"/><rect class="cls-6" x="119.44" y="191.34" width="12.07" height="5.14"/><rect class="cls-5" x="111.6" y="300.5" width="21.94" height="5.14"/><rect class="cls-5" x="117.16" y="179" width="21.94" height="5.14"/><rect class="cls-5" x="117.16" y="228.21" width="21.94" height="5.14"/><rect class="cls-5" x="129.6" y="340.56" width="9.49" height="5.14"/><rect class="cls-39" x="199.66" y="226.51" width="3.58" height="5.14"/><rect class="cls-39" x="199.21" y="240.86" width="4.02" height="5.14"/><rect class="cls-39" x="193.44" y="279.24" width="9.79" height="5.14"/><rect class="cls-39" x="139.1" y="192.57" width="9.46" height="5.14"/><rect class="cls-39" x="196.31" y="179" width="6.92" height="5.14"/><polygon class="cls-40" points="146.42 144.02 139.1 144.02 139.1 361.78 203.24 361.78 203.24 164.44 182.29 164.44 146.42 144.02"/><rect class="cls-5" x="139.1" y="204.97" width="26.9" height="5.14"/><rect class="cls-5" x="139.1" y="217.38" width="19.06" height="5.14"/><rect class="cls-5" x="165.97" y="217.38" width="6.17" height="5.14"/><rect class="cls-9" x="139.1" y="233.29" width="26.9" height="5.14"/><rect class="cls-6" x="159.05" y="250.33" width="14.89" height="5.14"/><rect class="cls-5" x="139.1" y="250.33" width="14.37" height="5.14"/><rect class="cls-5" x="139.1" y="265.13" width="26.9" height="5.14"/><rect class="cls-9" x="173.33" y="279.24" width="18.12" height="5.14"/><rect class="cls-5" x="153.25" y="279.24" width="16.07" height="5.14"/><rect class="cls-6" x="139.1" y="293.72" width="26.9" height="5.14"/><rect class="cls-5" x="180.64" y="316.52" width="10.54" height="5.14"/><rect class="cls-9" x="161.5" y="316.52" width="15.62" height="5.14"/><rect class="cls-5" x="139.1" y="316.52" width="15.94" height="5.14"/><rect class="cls-5" x="139.1" y="328.32" width="21.12" height="5.14"/><rect class="cls-6" x="162.9" y="328.32" width="18.06" height="5.14"/><rect class="cls-5" x="176.01" y="340.56" width="13.61" height="5.14"/><rect class="cls-6" x="192.3" y="340.56" width="10.94" height="5.14"/><rect class="cls-5" x="139.1" y="340.56" width="27.54" height="5.14"/><rect class="cls-5" x="139.1" y="305.7" width="26.9" height="5.14"/><rect class="cls-5" x="176.33" y="210.2" width="11.28" height="5.14"/><rect class="cls-5" x="192.3" y="210.2" width="10.94" height="5.14"/><rect class="cls-6" x="176.33" y="226.51" width="19.76" height="5.14"/><rect class="cls-5" x="167.85" y="240.86" width="24.67" height="5.14"/><rect class="cls-5" x="176.33" y="265.13" width="26.9" height="5.14"/><rect class="cls-5" x="139.1" y="179" width="26.9" height="5.14"/><rect class="cls-6" x="171.54" y="192.57" width="19.9" height="5.14"/><rect class="cls-5" x="152.13" y="192.57" width="15.17" height="5.14"/><rect class="cls-5" x="176.33" y="179" width="16.86" height="5.14"/><rect class="cls-5" x="176.33" y="293.72" width="26.9" height="5.14"/><path class="cls-10" d="M148.56,373.14a10.15,10.15,0,0,1-2.6,1.38c1.08-.19,1.09.49,2.25.45.44-.14,1.78-1.68,1.5-2.05C149.32,372.31,149,372.79,148.56,373.14Z" transform="translate(-2.34 -161.57)"/><path class="cls-10" d="M155.84,374.8a18.52,18.52,0,0,0-2.65-.29c-.22,0-3.28-.24-4.65-.19a23.47,23.47,0,0,0-3.41.32,24.15,24.15,0,0,0-.63,4.9c1.93,0,7.94-.61,8.08-.6,2.4.24,3-.48,2.62-1-.1-.13,1.54-.51,1.27-1.12a.79.79,0,0,0,.38-.79A2.58,2.58,0,0,0,155.84,374.8Z" transform="translate(-2.34 -161.57)"/><path class="cls-37" d="M124.72,370c-3.5-.75-6.81-1.45-9.28-1.89A17.57,17.57,0,0,0,114,366.6a155.13,155.13,0,0,1-10.84-12.55c-3.83-4.73-7.45-9.2-9.62-11a1.42,1.42,0,0,0-1.25-.27c-2,.48-8.77,8.53-9.48,10.48-2.1,5.81,20.18,20.58,26.57,23.69,6.11,3.08,27,4.2,35.92,3.76l.07-7.35C141.84,373.61,132.35,371.59,124.72,370Z" transform="translate(-2.34 -161.57)"/></svg>