<svg id="logo" xmlns="http://www.w3.org/2000/svg" xmlns:xlink="http://www.w3.org/1999/xlink" viewBox="0 0 197.44 263.35"><defs><style>.cls-1{fill:url(#linear-gradient);}.cls-2{fill:#9e93f2;}.cls-2,.cls-4{opacity:0.2;}.cls-3{fill:#fff;opacity:0.4;}.cls-4,.cls-5,.cls-6{fill:#1f5a68;}.cls-5{opacity:0.13;}.cls-6{opacity:0.08;}</style><linearGradient id="linear-gradient" x1="210.28" y1="283.7" x2="391.95" y2="162.76" gradientUnits="userSpaceOnUse"><stop offset="0" stop-color="#c46ed7"/><stop offset="0.46" stop-color="#9b5add"/><stop offset="1" stop-color="#5836e5"/></linearGradient></defs><title>dorstep-logo</title><path class="cls-1" d="M375.29,67.9A82.27,82.27,0,0,0,293,150.17v.08H276.57a82.28,82.28,0,0,0-82.27,82.27c0,.71,0,1.41,0,2.12a98.72,98.72,0,0,0,197.41-2.12V84.35A16.45,16.45,0,0,0,375.29,67.9ZM276.57,216.07a16.45,16.45,0,1,1-16.46,16.45A16.43,16.43,0,0,1,276.57,216.07Z" transform="translate(-194.3 -67.9)"/><path class="cls-2" d="M194.38,235.94a65.82,65.82,0,0,0,131.55-3.42V150.17a49.35,49.35,0,0,1,49.36-49.36,16.44,16.44,0,0,1,16.45,16.45v32.91a16.46,16.46,0,0,0-32.91,0v82.35a82.26,82.26,0,0,1-164.45,3.42Z" transform="translate(-194.3 -67.9)"/><path class="cls-3" d="M194.38,235.94a82.26,82.26,0,0,0,164.45-3.42V150.17a16.46,16.46,0,0,1,32.91,0v82.35a98.71,98.71,0,0,1-197.36,3.42Z" transform="translate(-194.3 -67.9)"/><path class="cls-4" d="M293,232.48a16.42,16.42,0,0,1-10.77,15.24,45.25,45.25,0,0,1-87.8-12.91,49.36,49.36,0,0,0,98.66-2.33Z" transform="translate(-194.3 -67.9)"/><path class="cls-5" d="M260.11,232.52a16.45,16.45,0,0,1,24.72-14.22V183.16h-8.26a49.36,49.36,0,0,0-49.35,49.29v.07a49.39,49.39,0,0,0,25.65,43.25A45.39,45.39,0,0,0,282.15,248a16.42,16.42,0,0,1-22-15.46Z" transform="translate(-194.3 -67.9)"/><path class="cls-4" d="M293.06,150.25a8.23,8.23,0,0,0-8.22,8.23h0V218.3A16.42,16.42,0,0,1,293,232.52h0l0-65.82h0Z" transform="translate(-194.3 -67.9)"/><path class="cls-6" d="M284.83,158.48h0a8.22,8.22,0,0,1,8.18-8.22H276.57a82.28,82.28,0,0,0-82.27,82.27h0c0,.15.11,2.29.11,2.29a45.28,45.28,0,0,0,58.43,41,49.39,49.39,0,0,1-25.65-43.25v-.07a49.36,49.36,0,0,1,49.35-49.29h8.26Z" transform="translate(-194.3 -67.9)"/></svg>